<svg width="6" height="10" viewBox="0 0 6 10" fill="none" xmlns="http://www.w3.org/2000/svg">
<path d="M0.645865 4.40837L4.1792 0.875039C4.25667 0.796932 4.34883 0.734936 4.45038 0.692629C4.55193 0.650322 4.66085 0.62854 4.77086 0.62854C4.88087 0.62854 4.9898 0.650322 5.09135 0.692629C5.19289 0.734936 5.28506 0.796932 5.36253 0.875039C5.51774 1.03117 5.60486 1.24238 5.60486 1.46254C5.60486 1.68269 5.51774 1.8939 5.36253 2.05004L2.41253 5.00004L5.36253 7.95004C5.51774 8.10617 5.60486 8.31739 5.60486 8.53754C5.60486 8.7577 5.51774 8.9689 5.36253 9.12504C5.28466 9.20227 5.19232 9.26338 5.09079 9.30485C4.98926 9.34632 4.88054 9.36734 4.77086 9.36671C4.66119 9.36734 4.55247 9.34632 4.45094 9.30485C4.34941 9.26338 4.25706 9.20227 4.1792 9.12504L0.645865 5.59171C0.567758 5.51424 0.505763 5.42207 0.463456 5.32052C0.421148 5.21897 0.399366 5.11005 0.399366 5.00004C0.399366 4.89003 0.421148 4.78111 0.463456 4.67956C0.505763 4.57801 0.567758 4.48584 0.645865 4.40837Z" fill="#6E7A7D" fill-opacity="0.4"/>
</svg>
