<svg width="6" height="10" viewBox="0 0 6 10" fill="none" xmlns="http://www.w3.org/2000/svg">
<path d="M5.35829 4.40837L1.82495 0.875039C1.74748 0.796932 1.65532 0.734936 1.55377 0.692629C1.45222 0.650322 1.3433 0.62854 1.23329 0.62854C1.12328 0.62854 1.01435 0.650322 0.912805 0.692629C0.811256 0.734936 0.719088 0.796932 0.641619 0.875039C0.48641 1.03117 0.399292 1.24238 0.399292 1.46254C0.399292 1.68269 0.48641 1.8939 0.641619 2.05004L3.59162 5.00004L0.641619 7.95004C0.48641 8.10617 0.399292 8.31739 0.399292 8.53754C0.399292 8.7577 0.48641 8.9689 0.641619 9.12504C0.719486 9.20227 0.811833 9.26338 0.913364 9.30485C1.0149 9.34632 1.12361 9.36734 1.23329 9.36671C1.34296 9.36734 1.45168 9.34632 1.55321 9.30485C1.65474 9.26338 1.74709 9.20227 1.82495 9.12504L5.35829 5.59171C5.43639 5.51424 5.49839 5.42207 5.5407 5.32052C5.583 5.21897 5.60478 5.11005 5.60478 5.00004C5.60478 4.89003 5.583 4.78111 5.5407 4.67956C5.49839 4.57801 5.43639 4.48584 5.35829 4.40837Z" fill="#6E7A7D" fill-opacity="0.4"/>
</svg>
